<?xml version="1.0" encoding="UTF-8"?>
<svg width="1200pt" height="1200pt" version="1.1" viewBox="0 0 1200 1200" xmlns="http://www.w3.org/2000/svg">
 <g>
  <path d="m164.4 844.8c-20.398 0-37.199-16.801-37.199-37.199v-450h752.4v214.8h6c24 0 46.801 2.3984 68.398 7.1992l0.003906-344.4c0-62.398-50.398-112.8-112.8-112.8h-81.602v-60c0-18-14.398-33.602-33.602-33.602h-82.801c-18 0-33.602 14.398-33.602 33.602v60h-214.79v-60c0-18-14.398-33.602-33.602-33.602h-82.801c-18 0-33.602 14.398-33.602 33.602v60h-81.602c-62.398 0-112.8 50.398-112.8 112.8v572.4c0 62.398 50.398 112.8 112.8 112.8h385.2v-12c0-21.602 2.3984-43.199 6-63.602z"/>
  <path d="m666 450c-14.398 0-25.199 10.801-25.199 25.199v68.398c0 14.398 10.801 25.199 25.199 25.199h94.801c14.398 0 25.199-10.801 25.199-25.199v-68.398c0-14.398-10.801-25.199-25.199-25.199z"/>
  <path d="m550.8 450h-94.801c-14.398 0-25.199 10.801-25.199 25.199v68.398c0 14.398 10.801 25.199 25.199 25.199h94.801c14.398 0 25.199-10.801 25.199-25.199v-68.398c0-14.398-10.801-25.199-25.199-25.199z"/>
  <path d="m550.8 634.8h-94.801c-14.398 0-25.199 10.801-25.199 25.199v68.398c0 14.398 10.801 25.199 25.199 25.199h94.801c14.398 0 25.199-10.801 25.199-25.199v-68.398c0-14.398-10.801-25.199-25.199-25.199z"/>
  <path d="m367.2 475.2c0-14.398-10.801-25.199-25.199-25.199h-94.801c-14.398 0-25.199 10.801-25.199 25.199v68.398c0 14.398 10.801 25.199 25.199 25.199h94.801c14.398 0 25.199-10.801 25.199-25.199z"/>
  <path d="m342 634.8h-94.801c-14.398 0-25.199 10.801-25.199 25.199v68.398c0 14.398 10.801 25.199 25.199 25.199h94.801c14.398 0 25.199-10.801 25.199-25.199v-68.398c0-14.398-12-25.199-25.199-25.199z"/>
  <path d="m885.6 646.8c-144 0-261.6 117.6-261.6 261.6s117.6 261.6 261.6 261.6 261.6-117.6 261.6-261.6c-0.003906-144-116.4-261.6-261.6-261.6zm108 298.8h-106.8c-20.398 0-37.199-16.801-37.199-37.199v-127.2c0-20.398 16.801-37.199 37.199-37.199 20.398 0 37.199 16.801 37.199 37.199v90h69.602c20.398 0 37.199 16.801 37.199 37.199 0 20.402-16.801 37.203-37.199 37.203z"/>
 </g>
</svg>
