<?xml version="1.0" encoding="UTF-8"?>
<svg width="700pt" height="700pt" version="1.1" viewBox="0 0 700 700" xmlns="http://www.w3.org/2000/svg">
 <g>
  <path d="m672 620.2-134.4-134.4c38.5-49 60.898-110.6 60.898-177.8 0.69922-160.3-130.2-290.5-290.5-290.5s-290.5 130.2-290.5 290.5 130.2 291.2 290.5 291.2c67.199 0 128.8-23.102 177.8-60.898l134.4 133.7c14 14 37.801 14 51.801 0 14-14.699 14-37.801 0-51.801zm-581-312.2c0-119.7 97.301-217 217-217s217.7 97.301 217.7 217-97.301 217.7-217.7 217.7-217-97.301-217-217.7z"/>
  <path d="m378 218.4c0 38.66-31.34 70-70 70s-70-31.34-70-70c0-38.66 31.34-70 70-70s70 31.34 70 70"/>
  <path d="m354.2 305.9-31.5 78.398-7-56.699h4.1992c2.8008 0 4.8984-2.1016 4.8984-4.8984v-15.398c0-2.8008-2.1016-4.8984-4.8984-4.8984h-25.199c-2.8008 0-4.8984 2.1016-4.8984 4.8984v15.398c0 2.8008 2.1016 4.8984 4.8984 4.8984h4.1992l-7 56.699-31.5-78.398c-31.5 7.6992-56 33.602-60.199 67.199l-6.3008 40.602c-2.1016 12.602 7 23.801 19.602 23.801 44.801 2.1016 140.7 2.1016 185.5 0 12.602-0.69922 21.699-11.898 19.602-23.801l-6.3008-40.602c-1.4023-33.598-26.602-59.496-58.102-67.199z"/>
 </g>
</svg>
