<?xml version="1.0" encoding="UTF-8"?>
<svg width="1200pt" height="1200pt" version="1.1" viewBox="0 0 1200 1200" xmlns="http://www.w3.org/2000/svg">
 <path d="m755.24 794.16c4.6211-2.6055 9.3477-5.4609 14.496-8.6992 2.957-2.0977 6.5039-3.1953 10.125-3.1406 3.6211 0.050782 7.1328 1.2578 10.023 3.4414l74.762 56.664 32.016-32.027 32.016-32.016-56.652-74.762c-2.0781-2.7617-3.2695-6.0859-3.4141-9.5391-0.14844-3.4531 0.76172-6.8672 2.5977-9.793 19.172-30.41 33.062-63.84 41.09-98.883 0.6875-3.4805 2.4453-6.6602 5.0273-9.0938 2.5781-2.4336 5.8555-4.0039 9.3711-4.4883l92.855-12.781v-45.312h-0.058594v-45.297l-92.699-12.77c-3.4648-0.45312-6.707-1.9648-9.2852-4.3281-2.5742-2.3633-4.3633-5.4609-5.1172-8.8711-7.9492-34.891-21.703-68.199-40.691-98.531-2.0898-2.957-3.1914-6.5-3.1367-10.117 0.054688-3.6211 1.2578-7.1289 3.4375-10.02l56.652-74.762-64.031-64.031-74.762 56.652c-2.7578 2.082-6.0859 3.2734-9.5391 3.4219-3.4531 0.14453-6.8672-0.76562-9.793-2.6055-30.414-19.168-63.848-33.066-98.891-41.102-3.4805-0.68359-6.6602-2.4414-9.0938-5.0234-2.4336-2.582-4-5.8594-4.4805-9.375l-12.777-92.855h-45.289v0.070312h-45.301l-12.77 92.699h0.003906c-0.46094 3.4648-1.9727 6.7031-4.332 9.2812-2.3633 2.5742-5.457 4.3633-8.8711 5.1211-34.887 7.957-68.191 21.707-98.531 40.68-2.9531 2.0938-6.4961 3.1953-10.117 3.1406-3.6211-0.050781-7.1289-1.2578-10.02-3.4414l-74.762-56.652-32.016 32.016-32.027 32.016 56.664 74.762h0.003906c2.1016 2.7578 3.3125 6.0938 3.4688 9.5586 0.15625 3.4648-0.74609 6.8945-2.5938 9.832-19.168 30.414-33.059 63.852-41.09 98.895-0.69141 3.4766-2.4492 6.6523-5.0273 9.0859-2.582 2.4336-5.8594 4-9.3711 4.4844l-92.867 12.793v45.289h0.058594v45.301l92.699 12.77v-0.003906c3.4648 0.45703 6.7031 1.9688 9.2812 4.332 2.5742 2.3594 4.3633 5.457 5.1211 8.8672 7.9492 34.891 21.703 68.195 40.68 98.531 2.0938 2.957 3.1914 6.5039 3.1367 10.125-0.054687 3.6211-1.2578 7.1328-3.4375 10.023l-56.664 74.746 32.027 32.016 32.004 31.945 74.762-56.664c2.7578-2.0781 6.0859-3.2695 9.5391-3.4141 3.4492-0.14453 6.8672 0.76172 9.793 2.6016 5.2422 3.3125 10.223 6.3125 15.289 9.1445l-0.003906-0.003906c-3.7539-65.477-25.91-128.57-63.922-182.02-22.152-34.066-40.668-62.531-40.668-109.84 0-68.914 27.375-135.01 76.105-183.74 48.734-48.73 114.82-76.109 183.74-76.109 68.914 0 135.01 27.379 183.74 76.109 48.734 48.73 76.109 114.82 76.109 183.74 0 47.305-18.516 75.77-40.668 109.84-38.023 53.477-60.184 116.6-63.926 182.11zm-15.898 65.664h-278.69v108.98h278.69zm-57.84 143.14h-163c-0.39453 1.6914-0.74219 3.4219-1.0312 5.1602-4.0664 24.258 2.75 49.078 18.633 67.863 15.883 18.781 39.227 29.621 63.824 29.645 24.598 0.019532 47.961-10.785 63.875-29.543 15.914-18.758 22.766-43.566 18.738-67.832-0.30469-1.8008-0.65234-3.5625-1.043-5.293zm37.859-177.29h-100.33v-161.77c17.164-3.918 32.492-13.535 43.484-27.285 10.996-13.75 17.008-30.816 17.055-48.422 0-6.1016-3.2539-11.738-8.5352-14.789-5.2852-3.0508-11.793-3.0508-17.078 0-5.2812 3.0508-8.5352 8.6875-8.5352 14.789-0.25781 15.359-8.5977 29.441-21.941 37.051-13.348 7.6055-29.715 7.6055-43.059 0-13.348-7.6094-21.688-21.691-21.941-37.051 0.12109-4.6055-1.6211-9.0664-4.8359-12.367-3.2148-3.3008-7.6289-5.1602-12.234-5.1602-4.6094 0-9.0195 1.8594-12.234 5.1602-3.2148 3.3008-4.957 7.7617-4.8359 12.367 0.046875 17.605 6.0547 34.676 17.051 48.426s26.324 23.367 43.488 27.281v161.77h-104.24c-3.9492-128.55-41.09-185.71-71.281-232.13-19.094-29.375-35.051-53.93-35.051-91.297 0-59.855 23.777-117.26 66.105-159.59 42.324-42.324 99.73-66.105 159.59-66.105s117.27 23.781 159.59 66.105c42.328 42.328 66.105 99.734 66.105 159.59 0 37.367-15.961 61.922-35.062 91.297-30.18 46.418-67.332 103.57-71.27 232.13z" fill-rule="evenodd"/>
</svg>
