<?xml version="1.0" encoding="UTF-8"?>
<svg width="1200pt" height="1200pt" version="1.1" viewBox="0 0 1200 1200" xmlns="http://www.w3.org/2000/svg">
 <g fill-rule="evenodd">
  <path d="m378.38 745.95v241.44c0 36.035-28.828 64.863-64.863 64.863-32.434 0-61.262-28.828-61.262-64.863v-241.44c-263.06-3.6055-259.46-400 3.6055-400h248.65l313.51-190.99c36.035-21.621 122.52 25.227 122.52 68.469v648.65c0 39.641-86.488 86.488-122.52 64.863l-313.51-190.99h-126.12zm126.12-342.34h-79.277v288.29h79.277zm345.95-154.95c14.414 0 25.227 10.812 25.227 25.227v544.14c0 14.414-10.812 28.828-25.227 28.828-14.414 0-25.227-14.414-25.227-28.828v-544.14c0-14.414 10.812-25.227 25.227-25.227z"/>
  <path d="m1027 518.92h95.133c11.941 0 21.621 15.922 21.621 28.828v1.2734c0 15.922-9.6797 28.828-21.621 28.828h-95.133c-11.941 0-21.621-15.922-21.621-28.828v-1.2734c0-15.922 9.6797-28.828 21.621-28.828z"/>
  <path d="m1008.7 387.09 85.75-49.508c9.4141-5.4336 25.02 3.9766 31.484 15.176l0.57812 1.0039c7.9766 13.816 6.8125 29.422-2.6016 34.855l-85.75 49.508c-9.4141 5.4336-25.02-3.9766-31.484-15.176l-0.57812-1.0039c-7.9766-13.816-6.8125-29.422 2.6016-34.855z"/>
  <path d="m1008.7 708.08 85.75 49.508c9.4141 5.4336 25.02-3.9766 31.484-15.176l0.57812-1.0039c7.9766-13.816 6.8125-29.422-2.6016-34.855l-85.75-49.508c-9.4141-5.4336-25.02 3.9766-31.484 15.176l-0.57812 1.0039c-7.9766 13.816-6.8125 29.422 2.6016 34.855z"/>
 </g>
</svg>
