<?xml version="1.0" encoding="UTF-8"?>
<svg width="1200pt" height="1200pt" version="1.1" viewBox="0 0 1200 1200" xmlns="http://www.w3.org/2000/svg">
 <path d="m600 12c-325.2 0-588 262.8-588 588s262.8 588 588 588 588-262.8 588-588-262.8-588-588-588zm-352.8 870c-3.6016 0-7.1992-1.1992-9.6016-2.3984-13.199-6-20.398-20.398-14.398-34.801 26.398-63.602 36-134.4 27.602-202.8-10.801-92.398 14.398-184.8 73.199-259.2 58.801-74.398 141.6-121.2 236.4-132 72-8.3984 142.8 4.8008 206.4 38.398 13.199 7.1992 18 22.801 10.801 36-7.1992 13.199-22.801 18-36 10.801-54-28.801-115.2-39.602-176.4-32.398-79.199 9.6016-151.2 49.199-200.4 112.8-49.199 63.602-72 141.6-62.398 220.8 9.6016 78-1.1992 157.2-31.199 229.2-3.6016 9.5977-13.203 15.598-24.004 15.598zm596.4-309.6v3.6016c0 14.398-12 26.398-26.398 26.398-13.199 0-25.199-10.801-26.398-24-13.199-104.4-108-180-212.4-166.8-13.199 1.1992-25.199 4.8008-38.398 8.3984-14.398 4.8008-28.801-2.3984-33.602-16.801-4.8008-14.398 2.3984-28.801 16.801-33.602 15.602-4.8008 32.398-8.3984 48-10.801 64.801-7.1992 128.4 10.801 180 50.398 52.793 40.809 85.191 98.41 92.395 163.21zm-514.8 394.8c-3.6016 0-8.3984-1.1992-12-2.3984-13.199-7.1992-18-22.801-10.801-36 48-92.398 66-195.6 54-298.8-7.1992-56.398 7.1992-114 37.199-162 8.3984-12 24-15.602 36-7.1992 12 8.3984 15.602 24 7.1992 36-24 37.199-34.801 82.801-30 127.2 13.199 114-7.1992 226.8-58.801 328.8-4.7969 8.3984-13.199 14.398-22.797 14.398zm92.398 57.602c-3.6016 0-8.3984-1.1992-12-3.6016-13.199-7.1992-18-22.801-10.801-36 22.801-43.199 40.801-88.801 52.801-135.6 3.6016-14.398 18-22.801 32.398-19.199 14.398 3.6016 22.801 18 19.199 32.398-13.199 51.602-32.398 100.8-57.602 146.4-4.7969 9.6055-14.395 15.605-23.996 15.605zm129.6 18c-4.8008 9.6016-14.398 14.398-24 14.398-3.6016 0-8.3984-1.1992-12-2.3984-13.199-6-18-22.801-12-34.801 63.602-128.4 88.801-271.2 72-415.2-1.1992-14.398 8.3984-27.602 22.801-28.801 14.398-1.1992 27.602 8.3984 28.801 22.801 19.199 152.4-7.2031 306-75.602 444zm118.8 2.3984c-4.8008 9.6016-14.398 15.602-24 15.602-3.6016 0-7.1992-1.1992-10.801-2.3984-13.199-6-19.199-21.602-14.398-34.801 58.801-135.6 80.398-285.6 62.398-433.2-4.8008-45.602-46.801-78-91.199-72-45.602 4.8008-78 46.801-72 91.199 3.6016 33.602 6 68.398 4.8008 103.2 0 14.398-12 26.398-27.602 25.199-14.398 0-26.398-13.199-25.199-27.602 1.1992-31.199 0-63.602-3.6016-94.801-4.8008-36 6-70.801 27.602-99.602 22.801-28.801 54-46.801 90-50.398 36-4.8008 70.801 6 99.602 27.602 28.801 22.801 46.801 54 50.398 90 19.199 158.4-3.6016 318-66 462zm129.6-36c-3.6016 10.801-14.398 18-25.199 18-2.3984 0-6 0-8.3984-1.1992-14.398-4.8008-21.602-19.199-16.801-33.602 28.801-87.602 45.602-178.8 48-272.4 0-14.398 12-26.398 27.602-25.199 14.398 0 26.398 12 25.199 27.602-2.4023 98.398-19.203 194.4-50.402 286.8zm139.2-97.199c-2.3984 12-13.199 21.602-26.398 21.602h-4.8008c-14.398-2.3984-24-16.801-20.398-31.199 21.602-110.4 26.398-223.2 13.199-336-6-51.602-25.199-100.8-56.398-142.8-8.3984-12-6-28.801 6-37.199 12-8.3984 28.801-6 37.199 6 36 49.199 60 106.8 67.199 168 12 117.6 7.1992 235.2-15.602 351.6zm99.602-336c-14.398 1.1992-27.602-8.3984-28.801-22.801-13.199-109.2-67.199-205.2-153.6-273.6-86.398-67.199-193.2-98.398-301.2-85.199-225.6 26.402-386.4 230.4-360 454.8 1.1992 14.398-8.3984 27.602-22.801 28.801h-3.6016c-13.199 0-24-9.6016-26.398-22.801-28.797-253.2 152.4-483.6 405.6-513.6s483.6 151.2 513.6 404.4c1.1992 15.602-8.4023 28.801-22.801 30z"/>
</svg>
