<?xml version="1.0" encoding="UTF-8"?>
<svg width="700pt" height="700pt" version="1.1" viewBox="0 0 700 700" xmlns="http://www.w3.org/2000/svg">
 <g>
  <path d="m647.06 159.91c-1.6172 2.0586-186.73 177.58-195.45 186.27l156.62 149.41c4.375 4.1562 4.5938 11.047 0.4375 15.422-4.1367 4.3594-11.039 4.5391-15.422 0.4375l-157.61-150.17-45.609 43.531c-10.719 10.281-24.5 15.422-38.281 15.422-13.672 0-27.344-5.0312-38.062-15.094l-46.594-43.75-160.45 150.61c-10.305 9.6562-25.43-6.0039-14.984-15.969l159.47-149.73-198.19-186.27c-5.7969 8.6406-9.1875 19.031-9.1875 30.297v319.38c0 30.078 24.5 54.688 54.688 54.688h503.12c30.188 0 54.688-24.609 54.688-54.688v-319.38c0-11.266-3.3906-21.656-9.1875-30.406z"/>
  <path d="m328.78 389.16c12.906 12.25 33.25 12.141 46.156-0.10938l256.59-244.45c-8.6406-5.6875-18.922-8.9688-29.969-8.9688h-503.12c-11.047 0-21.328 3.2812-29.969 8.9688z"/>
 </g>
</svg>
