<?xml version="1.0" encoding="UTF-8"?>
<svg width="1200pt" height="1200pt" version="1.1" viewBox="0 0 1200 1200" xmlns="http://www.w3.org/2000/svg">
 <path d="m760.13 944.63h361.34v68.617-0.003906c-0.64453 18.707-9.7891 36.094-24.84 47.223-18.477 14.223-41.223 21.766-64.535 21.395h-882.72c-23.312 0.37109-46.062-7.1719-64.535-21.395-15.047-11.129-24.195-28.516-24.84-47.223v-68.613h361.33l37.98 52.992c3.2695 4.5664 8.543 7.2773 14.16 7.2695h234.53c5.8281 0 11.273-2.9102 14.508-7.7617zm-224.71-371.25 42.371 46.02 395.86-364.54-42.383-46.066zm504.16-246.92-42.371-46.02-395.86 364.54 42.383 46.02zm86.148-153.1-34.078-37.02-0.25391-0.22656-0.48047-0.53906v-0.003906c-9.668-10.426-23.031-16.652-37.23-17.355-14.203-0.70312-28.113 4.1797-38.766 13.602l-0.12109 0.13281-57.949 53.363 108.3 117.6 57.434-52.883v-0.003906c10.543-9.7695 16.789-23.316 17.379-37.68 0.58984-14.363-4.5273-28.375-14.234-38.977zm-561.72 482.38-44.773-48.613-33.602 120.73 123.12-23.457zm-119.23 261.82 37.629 52.512h216.67l37.98-52.992c3.2617-4.5703 8.5352-7.2812 14.148-7.2695h342v-585.43l-17.277 15.875-421.13 387.82c-2.4258 2.3555-5.4883 3.9453-8.8086 4.5742l-181.29 34.633c-4.5391 0.88281-9.2422-0.074219-13.07-2.668-3.8281-2.5898-6.4648-6.6016-7.3281-11.145-0.57031-2.9297-0.36719-5.957 0.58594-8.7852l48.961-176.17c0.78125-3.4297 2.582-6.5391 5.1719-8.9141l328.34-302.4-734.15-0.003906c-1.6914-0.082032-3.3594 0.40625-4.7383 1.3906l-0.070312-0.085938c0-0.19141-0.097656-0.625-0.097656-0.34766v651.6h342c5.8242 0.019531 11.25 2.9531 14.461 7.8125z" fill-rule="evenodd"/>
</svg>